HIERARCHY
ROOT Hips
{
 OFFSET 0.000000 0.000000 0.000000
 CHANNELS 6 Xposition Yposition Zposition Yrotation Xrotation Zrotation
 JOINT Chest
 {
  OFFSET 0.000000 10.354800 0.006500
  CHANNELS 3 Yrotation Xrotation Zrotation
  JOINT Chest2
  {
   OFFSET 0.000000 10.435800 -0.013200
   CHANNELS 3 Yrotation Xrotation Zrotation
   JOINT Chest3
   {
    OFFSET 0.000000 10.393700 0.000000
    CHANNELS 3 Yrotation Xrotation Zrotation
    JOINT Chest4
    {
     OFFSET 0.000000 10.383100 0.000000
     CHANNELS 3 Yrotation Xrotation Zrotation
     JOINT Neck
     {
      OFFSET 0.000000 15.694000 0.000000
      CHANNELS 3 Yrotation Xrotation Zrotation
      JOINT Head
      {
       OFFSET 0.000000 9.711000 -0.028000
       CHANNELS 3 Yrotation Xrotation Zrotation
       End Site
       {
        OFFSET 0.000000 18.578700 -0.014800
       }
      }
     }
     JOINT RightCollar
     {
      OFFSET -3.157200 10.367500 0.000000
      CHANNELS 3 Yrotation Xrotation Zrotation
      JOINT RightShoulder
      {
       OFFSET -14.482500 0.000000 0.000000
       CHANNELS 3 Yrotation Xrotation Zrotation
       JOINT RightElbow
       {
        OFFSET 0.000000 -31.707800 0.000000
        CHANNELS 3 Yrotation Xrotation Zrotation
        JOINT RightWrist
        {
         OFFSET 0.000000 -25.659300 0.000000
         CHANNELS 3 Yrotation Xrotation Zrotation
         End Site
         {
          OFFSET 0.000000 -18.994300 0.000000
         }
        }
       }
      }
     }
     JOINT LeftCollar
     {
      OFFSET 3.157200 10.367500 0.000000
      CHANNELS 3 Yrotation Xrotation Zrotation
      JOINT LeftShoulder
      {
       OFFSET 14.482500 0.000000 0.000000
       CHANNELS 3 Yrotation Xrotation Zrotation
       JOINT LeftElbow
       {
        OFFSET 0.000000 -31.707800 0.000000
        CHANNELS 3 Yrotation Xrotation Zrotation
        JOINT LeftWrist
        {
         OFFSET 0.000000 -25.659300 0.000000
         CHANNELS 3 Yrotation Xrotation Zrotation
         End Site
         {
          OFFSET 0.000000 -18.994300 0.000000
         }
        }
       }
      }
     }
    }
   }
  }
 }
 JOINT RightHip
 {
  OFFSET -8.365600 -0.032100 -0.003200
  CHANNELS 3 Yrotation Xrotation Zrotation
  JOINT RightKnee
  {
   OFFSET 0.000000 -43.980000 0.003100
   CHANNELS 3 Yrotation Xrotation Zrotation
   JOINT RightAnkle
   {
    OFFSET 0.000000 -42.882800 0.005200
    CHANNELS 3 Yrotation Xrotation Zrotation
    JOINT RightToe
    {
     OFFSET 0.000000 -4.915500 10.826300
     CHANNELS 3 Yrotation Xrotation Zrotation
     End Site
     {
      OFFSET 0.000000 -1.517500 6.175900
     }
    }
   }
  }
 }
 JOINT LeftHip
 {
  OFFSET 8.365600 -0.032100 -0.003200
  CHANNELS 3 Yrotation Xrotation Zrotation
  JOINT LeftKnee
  {
   OFFSET 0.000000 -43.980000 0.003100
   CHANNELS 3 Yrotation Xrotation Zrotation
   JOINT LeftAnkle
   {
    OFFSET 0.000000 -42.882800 0.005200
    CHANNELS 3 Yrotation Xrotation Zrotation
    JOINT LeftToe
    {
     OFFSET 0.000000 -4.915500 10.826300
     CHANNELS 3 Yrotation Xrotation Zrotation
     End Site
     {
      OFFSET 0.000000 -1.517500 6.175900
     }
    }
   }
  }
 }
}
MOTION
Frames: 16
Frame Time: 0.008333
-1.022778 126.529366 39.511913 171.315879 -20.666117 -3.793060 1.314202 15.478809 2.656466 0.094136 1.486661 0.238641 0.161541 2.494848 0.402292 1.131330 13.759308 2.348445 -0.174405 20.688571 -5.323533 1.043474 -3.585798 -5.702599 3.139155 6.203755 -3.558314 1.601002 -6.012915 0.394334 -75.716705 -71.220297 89.699705 -20.221436 -10.444222 -29.982241 -3.140850 8.724262 -0.608195 9.833563 -4.398695 -3.960952 62.300941 -59.225136 -88.291123 23.414405 2.932160 31.840525 4.317637 -60.511607 0.203206 -98.590915 78.343108 -91.492755 4.766164 2.623058 -18.307072 -0.014626 -0.002300 -0.006640 -19.792228 -61.354604 5.330084 128.167139 84.327506 121.612363 -4.051003 -24.765275 0.087188 0.009060 0.003515 0.004114
-1.022067 126.528909 39.511436 171.293515 -20.661523 -3.820130 1.310517 15.477385 2.663526 0.070942 1.490631 0.224694 0.183794 2.491339 0.415956 1.126079 13.760353 2.348918 -0.145882 20.686011 -5.320920 1.063645 -3.588269 -5.705158 3.152694 6.205854 -3.569302 1.590288 -6.016789 0.400508 -75.756823 -71.222825 89.724891 -20.218531 -10.446135 -29.984612 -3.110407 8.720220 -0.605379 9.859085 -4.376934 -3.918464 62.317865 -59.211965 -88.312919 23.415361 2.925786 31.880019 4.227618 -60.504046 0.282742 -98.521834 78.367070 -91.407319 4.839523 2.628923 -18.351694 -0.006118 -0.005143 -0.002778 -19.818589 -61.357017 5.376496 128.164911 84.314733 121.622470 -4.050379 -24.746286 0.089926 0.007876 0.004287 0.003576
-1.017997 126.528105 39.512949 171.260278 -20.649047 -3.862966 1.325911 15.467742 2.692593 0.063807 1.494036 0.222841 0.149302 2.498068 0.398271 1.164086 13.752356 2.369875 -0.131122 20.687656 -5.323686 1.107135 -3.594507 -5.709808 3.180612 6.202522 -3.572271 1.559429 -6.015946 0.402125 -75.793622 -71.229085 89.750731 -20.216743 -10.446081 -29.991561 -3.083838 8.713978 -0.604154 9.877316 -4.367150 -3.899448 62.307620 -59.219640 -88.291320 23.417122 2.920258 31.918295 4.069822 -60.495907 0.401551 -98.398234 78.423071 -91.256409 5.013989 2.640446 -18.445959 0.006728 -0.008658 0.003054 -19.865236 -61.364805 5.454193 128.169238 84.296546 121.648067 -4.046681 -24.729359 0.090151 0.002431 0.004842 0.001104
-1.019363 126.527237 39.512446 171.241665 -20.640903 -3.879147 1.271303 15.478721 2.651229 0.092128 1.487355 0.239763 0.178615 2.492133 0.413921 1.090927 13.766031 2.346071 -0.045280 20.675907 -5.316208 1.158904 -3.596891 -5.722479 3.261805 6.190017 -3.570717 1.527830 -6.017894 0.399681 -75.831764 -71.228800 89.776231 -20.214786 -10.445015 -29.997974 -3.048793 8.686652 -0.600546 9.940697 -4.345600 -3.880586 62.292552 -59.231381 -88.267369 23.416402 2.912557 31.954078 4.001379 -60.496718 0.450646 -98.341860 78.454871 -91.185270 5.111186 2.651278 -18.489423 0.011726 -0.013447 0.005323 -19.883068 -61.372047 5.484757 128.194811 84.289895 121.681502 -4.043411 -24.718664 0.096501 0.002489 0.005381 0.001130
-1.015865 126.526518 39.513017 171.189811 -20.632366 -3.910967 1.313453 15.470374 2.686892 0.072841 1.490199 0.229928 0.196725 2.490288 0.423280 1.066022 13.769136 2.338718 -0.000188 20.671040 -5.311738 1.168544 -3.597814 -5.724434 3.252989 6.191253 -3.586335 1.505289 -6.028061 0.401293 -75.912281 -71.239541 89.836852 -20.238322 -10.408657 -29.976134 -3.016973 8.676108 -0.595314 9.953355 -4.326635 -3.842538 62.305798 -59.230060 -88.271492 23.411341 2.903468 31.983810 3.925683 -60.505585 0.562598 -98.288235 78.471642 -91.114082 5.078502 2.657240 -18.498049 -0.000577 -0.010171 -0.000262 -19.924713 -61.370228 5.579509 128.357213 84.290417 121.852699 -4.024933 -24.724723 0.096192 0.004878 0.006684 0.002215
-1.018234 126.525916 39.510828 171.175039 -20.629615 -3.920994 1.312601 15.470078 2.687073 0.052043 1.492943 0.220370 0.157079 2.496415 0.404460 1.117703 13.762946 2.361717 0.021651 20.669877 -5.313363 1.202815 -3.599390 -5.730863 3.280347 6.187477 -3.585347 1.455992 -6.028579 0.394908 -75.935741 -71.240304 89.868160 -20.241673 -10.408488 -29.984668 -2.997967 8.667017 -0.591793 9.965766 -4.308622 -3.805670 62.316238 -59.230305 -88.274476 23.404998 2.892676 32.006946 3.899970 -60.507738 0.597009 -98.272312 78.477511 -91.093301 5.134485 2.661836 -18.505242 -0.001982 -0.012386 -0.000900 -19.935508 -61.371379 5.599525 128.402552 84.286292 121.900795 -4.018600 -24.727988 0.097704 0.007362 0.006513 0.003343
-1.019499 126.525319 39.508636 171.157848 -20.625863 -3.935646 1.294958 15.471454 2.679058 0.050056 1.494621 0.218591 0.177707 2.492586 0.414660 1.128039 13.762171 2.366482 0.016804 20.672757 -5.318617 1.251168 -3.591586 -5.755698 3.257736 6.188261 -3.596416 1.445682 -6.032373 0.395854 -75.975724 -71.243180 89.899252 -20.246013 -10.408533 -29.986521 -3.017437 8.655897 -0.591679 10.001388 -4.287041 -3.765928 62.317641 -59.225403 -88.282905 23.400008 2.880046 32.026855 3.832892 -60.502360 0.644240 -98.227972 78.507402 -91.030505 5.248486 2.666475 -18.557195 0.005049 -0.015699 0.002292 -19.951507 -61.381448 5.611473 128.434608 84.261676 121.947777 -4.015919 -24.728636 0.100011 0.001049 0.002030 0.000476
-1.015727 126.524477 39.508592 171.117208 -20.613622 -3.970605 1.303143 15.463896 2.696302 0.071596 1.491927 0.230240 0.143991 2.496531 0.399717 1.144217 13.756532 2.374589 0.045016 20.676121 -5.325302 1.284005 -3.581891 -5.776636 3.268047 6.189153 -3.607318 1.429006 -6.036341 0.398970 -76.011149 -71.245154 89.930869 -20.247015 -10.409114 -29.986555 -3.039423 8.640987 -0.588109 10.074027 -4.265475 -3.734175 62.306849 -59.221309 -88.284822 23.404752 2.868694 32.037954 3.695790 -60.500825 0.761838 -98.142414 78.556352 -90.917841 5.387357 2.673628 -18.643415 0.015160 -0.018620 0.006881 -20.010277 -61.385521 5.705195 128.557791 84.253313 122.079039 -3.977244 -24.738938 0.094688 0.001946 0.002012 0.000883
-1.010930 126.523240 39.509669 171.076765 -20.592845 -4.011023 1.314540 15.451248 2.721269 0.091297 1.486398 0.240561 0.106598 2.499839 0.385096 1.161493 13.753067 2.381263 0.072194 20.680212 -5.332654 1.310062 -3.578842 -5.795847 3.275031 6.187861 -3.613717 1.427999 -6.041951 0.398325 -76.051080 -71.248559 89.961305 -20.248857 -10.400190 -29.980329 -3.016225 8.634402 -0.582634 10.101051 -4.255696 -3.699350 62.300688 -59.218364 -88.291548 23.425834 2.855732 32.035136 3.607850 -60.517835 0.873016 -98.127006 78.577455 -90.884472 5.509987 2.684965 -18.706982 0.050225 -0.041408 0.022789 -20.085510 -61.395126 5.821960 128.702061 84.246923 122.235383 -3.988719 -24.750872 0.094963 -0.001728 0.004654 -0.000785
-1.011321 126.523191 39.505028 171.037644 -20.596556 -4.017042 1.303951 15.461824 2.704675 0.091561 1.485628 0.240645 0.111219 2.498515 0.388232 1.119886 13.748978 2.367187 0.140276 20.685858 -5.340083 1.336200 -3.574101 -5.815321 3.325945 6.186657 -3.614285 1.455611 -6.042240 0.400584 -76.112986 -71.259283 89.991784 -20.262340 -10.373060 -29.959183 -2.931050 8.636178 -0.573908 10.107866 -4.257325 -3.631569 62.311873 -59.184033 -88.315803 23.427472 2.846085 32.050238 3.599881 -60.515255 0.920030 -98.127121 78.576446 -90.847382 5.392747 2.671378 -18.693630 0.020671 -0.019725 0.009383 -20.086550 -61.392435 5.850852 128.915874 84.243840 122.463550 -3.984284 -24.754423 0.103980 0.002533 0.000781 0.001150
-1.009602 126.521338 39.505860 170.968996 -20.569410 -4.027327 1.331619 15.440323 2.711249 0.043904 1.493017 0.220102 0.179809 2.485129 0.414019 1.080178 13.744842 2.353882 0.178145 20.691787 -5.350102 1.361181 -3.573415 -5.822599 3.306750 6.189144 -3.632481 1.480614 -6.052480 0.408242 -76.125749 -71.260028 90.012916 -20.260482 -10.372470 -29.965722 -2.902041 8.634233 -0.562007 10.138901 -4.253543 -3.601827 62.304059 -59.174259 -88.313846 23.425755 2.838912 32.058510 3.565048 -60.539820 1.004831 -98.068383 78.591842 -90.764357 5.212131 2.665867 -18.678939 0.000506 -0.005630 0.000230 -20.111645 -61.414490 5.938317 128.975430 84.233178 122.525526 -3.975788 -24.754207 0.108223 0.001519 0.000046 0.000689
-1.007739 126.519955 39.505036 170.932126 -20.547122 -4.046378 1.322909 15.427504 2.709717 0.060561 1.489643 0.226540 0.187964 2.480848 0.417400 1.056286 13.740376 2.345010 0.159948 20.698934 -5.385562 1.423835 -3.578064 -5.820743 3.334291 6.191599 -3.631556 1.402214 -6.071975 0.387471 -76.074816 -71.238715 90.007406 -20.233480 -10.410791 -29.994167 -2.885043 8.629745 -0.555795 10.165170 -4.250003 -3.557013 62.314825 -59.148806 -88.326133 23.408682 2.858009 32.080042 3.475802 -60.549841 1.081970 -97.988812 78.633782 -90.685583 5.352629 2.671043 -18.724444 0.002669 -0.005115 0.001212 -20.154598 -61.429097 6.017753 129.030865 84.228324 122.584412 -3.971212 -24.754172 0.110475 0.001727 0.000700 0.000784
-1.003763 126.518779 39.504107 170.895194 -20.525319 -4.075220 1.296653 15.423776 2.702793 0.120106 1.473807 0.252922 0.155723 2.485092 0.404351 1.066163 13.731768 2.346583 0.159186 20.704897 -5.402570 1.429622 -3.556734 -5.861160 3.346781 6.193754 -3.629642 1.372417 -6.082216 0.381885 -76.089172 -71.243206 90.019472 -20.246580 -10.385866 -29.973835 -2.920216 8.614767 -0.554517 10.232618 -4.233678 -3.541177 62.300339 -59.155389 -88.318991 23.403235 2.864428 32.086075 3.420606 -60.570101 1.160479 -97.957102 78.643475 -90.637654 5.526991 2.682421 -18.779206 0.018779 -0.014076 0.008524 -20.214828 -61.439171 6.114998 129.074734 84.216525 122.639183 -3.970196 -24.762617 0.098992 0.003499 0.001474 0.001589
-1.002984 126.517655 39.501568 170.864233 -20.507121 -4.085693 1.291333 15.415127 2.695654 0.118789 1.470515 0.253579 0.155223 2.481884 0.403353 1.063196 13.724555 2.343656 0.168337 20.711959 -5.417528 1.438053 -3.543664 -5.887138 3.300569 6.189796 -3.643846 1.437492 -6.084449 0.391230 -76.121249 -71.251805 90.038556 -20.233594 -10.396263 -29.985476 -2.911593 8.608992 -0.548560 10.267260 -4.225143 -3.525163 62.282176 -59.167413 -88.313579 23.411996 2.855886 32.088072 3.395476 -60.586740 1.205464 -97.929027 78.643548 -90.587186 5.487162 2.685732 -18.790578 0.013859 -0.012655 0.006291 -20.250508 -61.454201 6.164723 129.028438 84.193217 122.601349 -3.964986 -24.759735 0.096370 0.003110 0.000154 0.001412
-1.003635 126.516417 39.498634 170.838299 -20.488001 -4.088426 1.269961 15.409474 2.671804 0.099232 1.471968 0.243309 0.143585 2.476655 0.397865 1.090697 13.709368 2.354187 0.188365 20.719936 -5.430365 1.450066 -3.534496 -5.905952 3.314219 6.189243 -3.647996 1.420108 -6.092832 0.387579 -76.133023 -71.248616 90.060234 -20.225062 -10.395315 -29.990283 -2.883439 8.607912 -0.540094 10.286901 -4.222188 -3.490979 62.295037 -59.152264 -88.332887 23.412698 2.846340 32.091714 3.369048 -60.600314 1.235610 -97.888974 78.651873 -90.528350 5.389728 2.684484 -18.787036 -0.001754 -0.005240 -0.000796 -20.263692 -61.472421 6.198949 129.026690 84.186997 122.610421 -3.991795 -24.728572 0.118132 0.006473 0.002377 0.002939
-1.004195 126.515497 39.494777 170.825044 -20.472819 -4.094250 1.246884 15.404973 2.655070 0.088826 1.471473 0.238120 0.172084 2.469001 0.410205 1.064011 13.700807 2.342135 0.195387 20.726520 -5.443854 1.460829 -3.525788 -5.922645 3.318942 6.187157 -3.655279 1.402331 -6.097971 0.385566 -76.175138 -71.249032 90.099368 -20.241423 -10.358356 -29.966888 -2.846641 8.613510 -0.531685 10.286762 -4.227215 -3.455210 62.313436 -59.132924 -88.358523 23.420109 2.836977 32.100849 3.338417 -60.609254 1.259417 -97.849100 78.660513 -90.472881 5.392342 2.688147 -18.801100 -0.006153 -0.004527 -0.002793 -20.285717 -61.487939 6.218640 129.016230 84.185709 122.614114 -3.978465 -24.704716 0.117108 0.009483 0.002080 0.004306
